<svg width="142" height="48" viewBox="0 0 142 48" fill="none" xmlns="http://www.w3.org/2000/svg">
<path d="M130.692 0.000155999H11.3144C10.8792 0.000155999 10.4493 0.000156 10.0153 0.00255599C9.65202 0.00495598 9.29162 0.011928 8.92483 0.0177959C8.12801 0.0272781 7.33306 0.0981672 6.5469 0.229847C5.76183 0.364394 5.00136 0.618053 4.29121 0.982245C3.58192 1.34952 2.93382 1.82675 2.37043 2.39663C1.80408 2.96491 1.33198 3.62176 0.972286 4.34193C0.611602 5.06067 0.361503 5.83086 0.230626 6.62591C0.0985054 7.41995 0.0274098 8.22315 0.0179778 9.0283C0.00696567 9.39622 0.00580274 9.76536 0 10.1333V37.8704C0.00580274 38.243 0.00696567 38.6039 0.0179778 38.9766C0.0274127 39.7817 0.0985083 40.5849 0.230626 41.3789C0.361142 42.1744 0.611256 42.945 0.972286 43.6641C1.33181 44.3819 1.80398 45.0361 2.37043 45.6012C2.93169 46.1736 3.5802 46.6512 4.29121 47.0156C5.00136 47.3808 5.76175 47.636 6.5469 47.7726C7.3332 47.9032 8.12806 47.9741 8.92483 47.9848C9.29162 47.9929 9.65202 47.9976 10.0153 47.9976C10.4493 48 10.8793 48 11.3144 48H130.692C131.118 48 131.552 48 131.978 47.9976C132.34 47.9976 132.711 47.9929 133.072 47.9848C133.868 47.9747 134.661 47.9038 135.446 47.7726C136.233 47.635 136.996 47.3799 137.71 47.0156C138.42 46.651 139.068 46.1734 139.629 45.6012C140.194 45.0339 140.667 44.3802 141.031 43.6641C141.39 42.9445 141.637 42.174 141.766 41.3789C141.898 40.5848 141.972 39.7818 141.986 38.9766C141.991 38.6039 141.991 38.243 141.991 37.8704C142 37.4344 142 37.0008 142 36.5578V11.4435C142 11.004 142 10.5681 141.991 10.1333C141.991 9.76536 141.991 9.39622 141.986 9.02825C141.972 8.22304 141.898 7.42001 141.766 6.62586C141.637 5.83128 141.389 5.06114 141.031 4.34189C140.299 2.89838 139.137 1.72338 137.71 0.982137C136.996 0.618835 136.233 0.365243 135.446 0.229739C134.661 0.097479 133.868 0.0265652 133.072 0.0176279C132.711 0.011772 132.34 0.00473998 131.978 0.00239999C131.552 0 131.118 0 130.692 0V0.000155999Z" fill="#A6A6A6"/>
<path d="M10.0215 46.9498C9.65997 46.9498 9.30715 46.9451 8.94844 46.9369C8.20533 46.9271 7.46396 46.8617 6.73041 46.7412C6.04641 46.6221 5.3838 46.4005 4.76443 46.0837C4.15074 45.7696 3.59101 45.3577 3.10668 44.8638C2.61533 44.3758 2.20626 43.8097 1.89568 43.188C1.58168 42.5623 1.36437 41.8917 1.25133 41.1994C1.12925 40.4555 1.0632 39.7034 1.05375 38.9494C1.04623 38.6963 1.03638 37.8537 1.03638 37.8537V10.1331C1.03638 10.1331 1.04687 9.30342 1.05381 9.05966C1.06286 8.30688 1.12852 7.55589 1.25024 6.81318C1.36349 6.11901 1.58097 5.44641 1.89514 4.81867C2.20457 4.19745 2.61137 3.63095 3.09976 3.14114C3.58759 2.64667 4.14912 2.23265 4.76385 1.91418C5.3818 1.59844 6.04316 1.3784 6.72577 1.26145C7.46173 1.13973 8.20568 1.07392 8.95136 1.06458L10.0221 1.04993H131.973L133.056 1.06517C133.795 1.07405 134.533 1.13927 135.262 1.26027C135.951 1.3787 136.62 1.60026 137.245 1.91769C138.476 2.55951 139.478 3.57491 140.11 4.8216C140.419 5.44501 140.634 6.11212 140.745 6.8003C140.869 7.5491 140.938 8.30599 140.952 9.06494C140.955 9.40478 140.955 9.76982 140.955 10.1331C140.964 10.5831 140.964 11.0114 140.964 11.4432V36.5576C140.964 36.9935 140.964 37.4189 140.955 37.8478C140.955 38.238 140.955 38.5955 140.95 38.9634C140.937 39.7089 140.869 40.4522 140.748 41.1876C140.637 41.8849 140.421 42.5608 140.107 43.1916C139.794 43.8065 139.387 44.3677 138.902 44.8545C138.417 45.351 137.856 45.7653 137.241 46.0815C136.618 46.4007 135.951 46.6231 135.262 46.7412C134.528 46.8624 133.787 46.9278 133.044 46.9369C132.696 46.9451 132.332 46.9498 131.979 46.9498L130.692 46.9522L10.0215 46.9498Z" fill="black"/>
<path d="M29.3923 24.3612C29.4051 23.3597 29.6682 22.3776 30.1571 21.5065C30.646 20.6353 31.3449 19.9034 32.1887 19.3788C31.6527 18.6046 30.9455 17.9675 30.1234 17.518C29.3012 17.0686 28.3867 16.8191 27.4526 16.7896C25.4599 16.5781 23.5281 17.9954 22.5127 17.9954C21.4776 17.9954 19.9142 16.8106 18.2306 16.8456C17.1417 16.8812 16.0804 17.2014 15.1502 17.7751C14.22 18.3488 13.4526 19.1563 12.9228 20.119C10.6278 24.1371 12.3397 30.0424 14.5381 33.2903C15.638 34.8807 16.9235 36.6572 18.6055 36.5942C20.2515 36.5252 20.8662 35.5329 22.853 35.5329C24.8214 35.5329 25.3982 36.5942 27.1143 36.5542C28.8805 36.5252 29.9933 34.9567 31.0546 33.3512C31.8449 32.218 32.453 30.9655 32.8564 29.6402C31.8303 29.2014 30.9547 28.4668 30.3387 27.528C29.7226 26.5892 29.3935 25.4879 29.3923 24.3612Z" fill="white"/>
<path d="M26.1509 14.6531C27.1139 13.484 27.5883 11.9814 27.4734 10.4644C26.0022 10.6206 24.6432 11.3317 23.6671 12.4559C23.1899 13.0051 22.8245 13.644 22.5916 14.3361C22.3587 15.0282 22.263 15.76 22.31 16.4895C23.0458 16.4972 23.7739 16.3359 24.4392 16.0178C25.1045 15.6997 25.6898 15.2331 26.1509 14.6531Z" fill="white"/>
<path d="M50.1982 32.5676H44.5813L43.2324 36.5953H40.8533L46.1735 21.6937H48.6453L53.9656 36.5953H51.5459L50.1982 32.5676ZM45.163 30.709H49.6153L47.4205 24.1723H47.3591L45.163 30.709Z" fill="white"/>
<path d="M65.4561 31.1637C65.4561 34.5399 63.6692 36.709 60.9726 36.709C60.2895 36.7451 59.6101 36.586 59.0123 36.2499C58.4145 35.9137 57.9223 35.4141 57.5922 34.8082H57.5412V40.1894H55.3359V25.7309H57.4706V27.5379H57.5111C57.8564 26.935 58.3568 26.438 58.9592 26.0997C59.5616 25.7615 60.2434 25.5948 60.932 25.6172C63.6587 25.6172 65.4561 27.7969 65.4561 31.1637ZM63.1894 31.1637C63.1894 28.9641 62.0654 27.518 60.3503 27.518C58.6653 27.518 57.532 28.9946 57.532 31.1637C57.532 33.3528 58.6653 34.8188 60.3503 34.8188C62.0654 34.8188 63.1894 33.3832 63.1894 31.1637Z" fill="white"/>
<path d="M77.2806 31.1637C77.2806 34.5399 75.4937 36.709 72.797 36.709C72.1139 36.7451 71.4346 36.586 70.8368 36.2498C70.2389 35.9137 69.7468 35.4141 69.4167 34.8082H69.3657V40.1894H67.1604V25.7309H69.295V27.5379H69.3355C69.6808 26.935 70.1813 26.4379 70.7836 26.0997C71.386 25.7615 72.0678 25.5948 72.7565 25.6172C75.4832 25.6172 77.2806 27.7969 77.2806 31.1637ZM75.0139 31.1637C75.0139 28.9641 73.8898 27.518 72.1747 27.518C70.4898 27.518 69.3564 28.9946 69.3564 31.1637C69.3564 33.3528 70.4898 34.8188 72.1747 34.8188C73.8898 34.8188 75.0139 33.3832 75.0139 31.1637H75.0139Z" fill="white"/>
<path d="M85.0958 32.4434C85.2592 33.9211 86.6788 34.8914 88.6187 34.8914C90.4775 34.8914 91.8148 33.9211 91.8148 32.5886C91.8148 31.432 91.0083 30.7395 89.0985 30.2648L87.1887 29.7996C84.4828 29.1387 83.2266 27.859 83.2266 25.7824C83.2266 23.2113 85.4423 21.4453 88.5886 21.4453C91.7024 21.4453 93.837 23.2113 93.9088 25.7824H91.6827C91.5494 24.2953 90.3338 23.3977 88.5573 23.3977C86.7808 23.3977 85.5651 24.3059 85.5651 25.6277C85.5651 26.6812 86.3416 27.3012 88.2409 27.7757L89.8644 28.1789C92.8879 28.9019 94.1441 30.13 94.1441 32.3097C94.1441 35.0976 91.948 36.8437 88.4553 36.8437C85.1873 36.8437 82.9809 35.1386 82.8384 32.4433L85.0958 32.4434Z" fill="white"/>
<path d="M98.9038 23.1602V25.7312H100.947V27.4973H98.9038V33.4867C98.9038 34.4172 99.3129 34.8507 100.211 34.8507C100.454 34.8465 100.696 34.8292 100.936 34.7991V36.5546C100.533 36.6309 100.122 36.6655 99.7115 36.6577C97.5364 36.6577 96.6881 35.8316 96.6881 33.7245V27.4973H95.126V25.7312H96.6881V23.1602H98.9038Z" fill="white"/>
<path d="M102.13 31.164C102.13 27.7457 104.121 25.5977 107.225 25.5977C110.34 25.5977 112.322 27.7456 112.322 31.164C112.322 34.5918 110.351 36.7304 107.225 36.7304C104.101 36.7304 102.13 34.5918 102.13 31.164ZM110.075 31.164C110.075 28.8191 109.012 27.4352 107.225 27.4352C105.438 27.4352 104.377 28.8297 104.377 31.164C104.377 33.5183 105.438 34.8918 107.225 34.8918C109.012 34.8918 110.075 33.5183 110.075 31.164H110.075Z" fill="white"/>
<path d="M114.14 25.7308H116.243V27.58H116.294C116.437 27.0025 116.771 26.4921 117.242 26.1346C117.713 25.7771 118.291 25.5944 118.879 25.6171C119.133 25.6162 119.386 25.6441 119.634 25.7003V27.7863C119.313 27.6871 118.979 27.6416 118.643 27.6515C118.323 27.6384 118.004 27.6955 117.707 27.8189C117.411 27.9424 117.144 28.1293 116.926 28.3668C116.708 28.6042 116.543 28.8867 116.442 29.1947C116.342 29.5027 116.309 29.8289 116.345 30.1511V36.5952H114.14L114.14 25.7308Z" fill="white"/>
<path d="M129.802 33.4047C129.506 35.3769 127.606 36.7304 125.176 36.7304C122.051 36.7304 120.111 34.6129 120.111 31.2156C120.111 27.8078 122.061 25.5977 125.083 25.5977C128.056 25.5977 129.925 27.6625 129.925 30.9566V31.7207H122.337V31.8554C122.302 32.2553 122.351 32.6581 122.482 33.0371C122.613 33.4161 122.822 33.7626 123.095 34.0537C123.369 34.3447 123.7 34.5737 124.068 34.7252C124.435 34.8768 124.83 34.9475 125.227 34.9328C125.748 34.9822 126.271 34.8601 126.718 34.5848C127.165 34.3094 127.512 33.8955 127.708 33.4047L129.802 33.4047ZM122.347 30.1621H127.719C127.738 29.8026 127.685 29.4428 127.56 29.1054C127.436 28.7679 127.244 28.4601 126.997 28.2011C126.749 27.9422 126.452 27.7378 126.122 27.6008C125.793 27.4637 125.439 27.3969 125.083 27.4047C124.724 27.4025 124.368 27.4723 124.036 27.61C123.704 27.7477 123.402 27.9505 123.147 28.2069C122.893 28.4633 122.691 28.768 122.554 29.1036C122.417 29.4392 122.346 29.7989 122.347 30.1621V30.1621Z" fill="white"/>
<path d="M44.8867 10.4771C45.349 10.4436 45.8129 10.5142 46.245 10.6839C46.6771 10.8536 47.0665 11.1182 47.3853 11.4586C47.704 11.7989 47.944 12.2065 48.0881 12.6521C48.2321 13.0976 48.2766 13.5699 48.2183 14.0349C48.2183 16.3224 46.9958 17.6373 44.8867 17.6373H42.3291V10.4771H44.8867ZM43.4288 16.6247H44.7638C45.0942 16.6447 45.4248 16.5899 45.7316 16.4644C46.0384 16.3388 46.3137 16.1457 46.5373 15.899C46.761 15.6523 46.9275 15.3583 47.0246 15.0384C47.1218 14.7184 47.1471 14.3806 47.0989 14.0495C47.1436 13.7197 47.1157 13.384 47.0171 13.0664C46.9184 12.7488 46.7515 12.4572 46.5284 12.2125C46.3052 11.9678 46.0313 11.776 45.7262 11.6509C45.4211 11.5258 45.0925 11.4705 44.7638 11.489H43.4288V16.6247Z" fill="white"/>
<path d="M49.4609 14.933C49.4273 14.5779 49.4675 14.2197 49.5788 13.8812C49.6902 13.5427 49.8703 13.2315 50.1075 12.9675C50.3448 12.7035 50.634 12.4926 50.9566 12.3483C51.2792 12.204 51.628 12.1294 51.9808 12.1294C52.3336 12.1294 52.6824 12.204 53.005 12.3483C53.3276 12.4926 53.6168 12.7035 53.8541 12.9675C54.0913 13.2315 54.2714 13.5427 54.3828 13.8812C54.4941 14.2197 54.5343 14.5779 54.5007 14.933C54.5349 15.2885 54.4952 15.6473 54.3842 15.9863C54.2731 16.3253 54.0931 16.6371 53.8558 16.9016C53.6185 17.1661 53.3291 17.3775 53.0062 17.5221C52.6832 17.6668 52.334 17.7415 51.9808 17.7415C51.6276 17.7415 51.2784 17.6668 50.9554 17.5221C50.6325 17.3775 50.3431 17.1661 50.1058 16.9016C49.8685 16.6371 49.6885 16.3253 49.5774 15.9863C49.4664 15.6473 49.4267 15.2885 49.4609 14.933ZM53.416 14.933C53.416 13.7618 52.8957 13.0768 51.9825 13.0768C51.0659 13.0768 50.5502 13.7618 50.5502 14.9331C50.5502 16.1137 51.0659 16.7934 51.9825 16.7934C52.8957 16.7934 53.416 16.109 53.416 14.933H53.416Z" fill="white"/>
<path d="M61.1999 17.6374H60.1059L59.0016 13.6577H58.9181L57.8184 17.6374H56.7349L55.262 12.2339H56.3316L57.2888 16.3571H57.3676L58.4662 12.2339H59.4778L60.5764 16.3571H60.6599L61.6124 12.2339H62.667L61.1999 17.6374Z" fill="white"/>
<path d="M63.9058 12.2336H64.9209V13.092H64.9997C65.1334 12.7837 65.3589 12.5253 65.6447 12.3527C65.9305 12.1802 66.2625 12.1021 66.5943 12.1293C66.8543 12.1096 67.1153 12.1492 67.3581 12.2453C67.6009 12.3414 67.8192 12.4916 67.9968 12.6846C68.1744 12.8776 68.3069 13.1085 68.3842 13.3603C68.4616 13.6121 68.482 13.8783 68.4438 14.1391V17.6371H67.3892V14.4069C67.3892 13.5385 67.0161 13.1067 66.2362 13.1067C66.0597 13.0984 65.8835 13.1288 65.7196 13.1958C65.5558 13.2628 65.4082 13.3648 65.2871 13.4948C65.1659 13.6249 65.0739 13.7799 65.0175 13.9493C64.9611 14.1186 64.9416 14.2983 64.9603 14.476V17.6371H63.9058L63.9058 12.2336Z" fill="white"/>
<path d="M70.1238 10.1245H71.1789V17.6374H70.1238V10.1245Z" fill="white"/>
<path d="M72.6449 14.9331C72.6114 14.578 72.6516 14.2197 72.763 13.8812C72.8743 13.5427 73.0545 13.2315 73.2917 12.9675C73.529 12.7035 73.8183 12.4926 74.1409 12.3483C74.4635 12.204 74.8124 12.1294 75.1651 12.1294C75.5179 12.1294 75.8668 12.204 76.1894 12.3483C76.512 12.4926 76.8013 12.7035 77.0385 12.9675C77.2758 13.2315 77.4559 13.5427 77.5673 13.8812C77.6787 14.2197 77.7189 14.578 77.6853 14.9331C77.7195 15.2886 77.6798 15.6474 77.5687 15.9864C77.4576 16.3255 77.2776 16.6372 77.0402 16.9017C76.8029 17.1662 76.5135 17.3776 76.1905 17.5222C75.8676 17.6668 75.5183 17.7415 75.1651 17.7415C74.812 17.7415 74.4627 17.6668 74.1397 17.5222C73.8168 17.3776 73.5274 17.1662 73.29 16.9017C73.0527 16.6372 72.8727 16.3255 72.7616 15.9864C72.6505 15.6474 72.6108 15.2886 72.6449 14.9331ZM76.6001 14.9331C76.6001 13.7619 76.0797 13.0769 75.1666 13.0769C74.2499 13.0769 73.7343 13.7619 73.7343 14.9332C73.7343 16.1138 74.25 16.7935 75.1666 16.7935C76.0798 16.7935 76.6001 16.1091 76.6001 14.9331H76.6001Z" fill="white"/>
<path d="M78.7944 16.1091C78.7944 15.1364 79.5106 14.5757 80.7818 14.496L82.2292 14.4116V13.9452C82.2292 13.3745 81.8561 13.0522 81.1353 13.0522C80.5466 13.0522 80.1387 13.2708 80.0216 13.6528H79.0007C79.1085 12.7247 79.9718 12.1294 81.184 12.1294C82.5236 12.1294 83.2792 12.8038 83.2792 13.9452V17.6372H82.264V16.8778H82.1806C82.0112 17.1502 81.7734 17.3723 81.4914 17.5213C81.2095 17.6704 80.8934 17.7411 80.5756 17.7262C80.3513 17.7498 80.1245 17.7256 79.91 17.6552C79.6955 17.5847 79.498 17.4696 79.3302 17.3173C79.1624 17.1649 79.028 16.9787 78.9357 16.7706C78.8435 16.5625 78.7953 16.3371 78.7944 16.1091ZM82.2292 15.6473V15.1956L80.9244 15.28C80.1885 15.3298 79.8548 15.5829 79.8548 16.0592C79.8548 16.5456 80.2719 16.8286 80.8456 16.8286C81.0137 16.8458 81.1835 16.8286 81.3449 16.7781C81.5063 16.7276 81.656 16.6448 81.7851 16.5346C81.9142 16.4244 82.02 16.289 82.0963 16.1366C82.1726 15.9842 82.2178 15.8178 82.2292 15.6473Z" fill="white"/>
<path d="M84.6658 14.9333C84.6658 13.2259 85.5338 12.1442 86.8838 12.1442C87.2177 12.1287 87.5492 12.2096 87.8393 12.3774C88.1295 12.5453 88.3664 12.7932 88.5224 13.0922H88.6012V10.1245H89.6557V17.6374H88.6452V16.7837H88.5618C88.3938 17.0806 88.1486 17.3255 87.8528 17.4917C87.557 17.6578 87.2219 17.739 86.8838 17.7264C85.5245 17.7265 84.6658 16.6448 84.6658 14.9333ZM85.7551 14.9333C85.7551 16.0794 86.2894 16.769 87.1828 16.769C88.0716 16.769 88.6209 16.0694 88.6209 14.938C88.6209 13.8118 88.0659 13.1023 87.1828 13.1023C86.2951 13.1023 85.7551 13.7966 85.7551 14.9333H85.7551Z" fill="white"/>
<path d="M94.019 14.933C93.9854 14.5779 94.0256 14.2197 94.1369 13.8812C94.2483 13.5427 94.4284 13.2315 94.6656 12.9675C94.9029 12.7035 95.1921 12.4926 95.5147 12.3483C95.8373 12.204 96.1861 12.1294 96.5389 12.1294C96.8917 12.1294 97.2405 12.204 97.5631 12.3483C97.8857 12.4926 98.1749 12.7035 98.4122 12.9675C98.6494 13.2315 98.8295 13.5427 98.9409 13.8812C99.0522 14.2197 99.0924 14.5779 99.0588 14.933C99.093 15.2885 99.0533 15.6473 98.9423 15.9863C98.8312 16.3253 98.6512 16.6371 98.4139 16.9016C98.1766 17.1661 97.8872 17.3775 97.5643 17.5221C97.2413 17.6668 96.8921 17.7415 96.5389 17.7415C96.1857 17.7415 95.8365 17.6668 95.5135 17.5221C95.1906 17.3775 94.9012 17.1661 94.6639 16.9016C94.4266 16.6371 94.2466 16.3253 94.1355 15.9863C94.0245 15.6473 93.9848 15.2885 94.019 14.933ZM97.9741 14.933C97.9741 13.7618 97.4538 13.0768 96.5406 13.0768C95.624 13.0768 95.1083 13.7618 95.1083 14.9331C95.1083 16.1137 95.624 16.7934 96.5406 16.7934C97.4538 16.7934 97.9741 16.109 97.9741 14.933Z" fill="white"/>
<path d="M100.473 12.2336H101.488V13.092H101.567C101.701 12.7837 101.926 12.5253 102.212 12.3527C102.498 12.1802 102.83 12.1021 103.162 12.1293C103.422 12.1096 103.683 12.1492 103.926 12.2453C104.168 12.3414 104.387 12.4916 104.564 12.6846C104.742 12.8776 104.874 13.1085 104.952 13.3603C105.029 13.6121 105.049 13.8783 105.011 14.1391V17.6371H103.957V14.4069C103.957 13.5385 103.583 13.1067 102.804 13.1067C102.627 13.0984 102.451 13.1288 102.287 13.1958C102.123 13.2628 101.976 13.3648 101.854 13.4948C101.733 13.6249 101.641 13.7799 101.585 13.9493C101.529 14.1186 101.509 14.2983 101.528 14.476V17.6371H100.473V12.2336Z" fill="white"/>
<path d="M110.971 10.8887V12.2586H112.128V13.1568H110.971V15.9353C110.971 16.5014 111.201 16.7492 111.726 16.7492C111.861 16.7488 111.995 16.7405 112.128 16.7246V17.6129C111.939 17.6471 111.747 17.6653 111.555 17.6674C110.382 17.6674 109.915 17.2502 109.915 16.2084V13.1568H109.067V12.2585H109.915V10.8887H110.971Z" fill="white"/>
<path d="M113.568 10.1245H114.614V13.1022H114.697C114.837 12.7911 115.069 12.5311 115.36 12.3579C115.652 12.1847 115.989 12.1066 116.326 12.1343C116.585 12.12 116.844 12.1637 117.084 12.2622C117.324 12.3606 117.539 12.5114 117.715 12.7038C117.891 12.8962 118.022 13.1255 118.1 13.3753C118.178 13.625 118.201 13.8891 118.167 14.1487V17.6374H117.111V14.4118C117.111 13.5487 116.713 13.1116 115.968 13.1116C115.787 13.0966 115.605 13.1218 115.434 13.1854C115.264 13.2491 115.109 13.3497 114.981 13.4802C114.852 13.6107 114.754 13.7679 114.692 13.9408C114.631 14.1138 114.607 14.2983 114.623 14.4815V17.6374H113.568L113.568 10.1245Z" fill="white"/>
<path d="M124.315 16.1783C124.172 16.6721 123.862 17.0993 123.438 17.3851C123.015 17.6709 122.506 17.7971 122 17.7416C121.648 17.751 121.298 17.6828 120.975 17.5417C120.651 17.4007 120.362 17.1902 120.127 16.9248C119.892 16.6595 119.718 16.3456 119.615 16.005C119.512 15.6644 119.483 15.3053 119.532 14.9525C119.485 14.5987 119.514 14.2387 119.616 13.8971C119.719 13.5555 119.893 13.2402 120.126 12.9725C120.36 12.7048 120.648 12.491 120.97 12.3456C121.293 12.2001 121.642 12.1264 121.995 12.1295C123.482 12.1295 124.379 13.1567 124.379 14.8535V15.2256H120.606V15.2853C120.589 15.4836 120.614 15.6832 120.678 15.8713C120.742 16.0594 120.845 16.2319 120.979 16.3776C121.113 16.5234 121.275 16.6392 121.456 16.7177C121.637 16.7962 121.832 16.8355 122.029 16.8333C122.281 16.864 122.537 16.818 122.763 16.7014C122.989 16.5847 123.176 16.4026 123.3 16.1783L124.315 16.1783ZM120.606 14.4369H123.305C123.318 14.2555 123.294 14.0734 123.233 13.9021C123.173 13.7309 123.077 13.5743 122.954 13.4425C122.83 13.3106 122.68 13.2065 122.514 13.1367C122.348 13.0668 122.169 13.0329 121.989 13.0371C121.807 13.0348 121.626 13.0694 121.457 13.1389C121.288 13.2085 121.135 13.3115 121.006 13.442C120.877 13.5724 120.775 13.7277 120.706 13.8985C120.638 14.0694 120.603 14.2525 120.606 14.4369H120.606Z" fill="white"/>
</svg>
